<svg xmlns="http://www.w3.org/2000/svg" viewBox="0 0 96 96" role="img" aria-labelledby="title desc">
  <title id="title">Quiniela 2026</title>
  <desc id="desc">Marca abstracta de balón y quiniela inspirada en colores de México.</desc>
  <defs>
    <linearGradient id="field" x1="16" y1="12" x2="80" y2="84" gradientUnits="userSpaceOnUse">
      <stop stop-color="#00c6a3"/>
      <stop offset="0.45" stop-color="#007050"/>
      <stop offset="1" stop-color="#002018"/>
    </linearGradient>
    <linearGradient id="gold" x1="24" y1="18" x2="72" y2="78" gradientUnits="userSpaceOnUse">
      <stop stop-color="#f4bd4f"/>
      <stop offset="1" stop-color="#d9942d"/>
    </linearGradient>
  </defs>
  <rect width="96" height="96" rx="24" fill="#020f2a"/>
  <circle cx="48" cy="48" r="34" fill="url(#field)" stroke="url(#gold)" stroke-width="4"/>
  <path d="M30 36c7-9 29-9 36 0M30 60c7 9 29 9 36 0" fill="none" stroke="#f4bd4f" stroke-width="5" stroke-linecap="round"/>
  <path d="M30 48h36" fill="none" stroke="#e8fff7" stroke-width="4" stroke-linecap="round" opacity=".9"/>
  <path d="M48 19c-10 13-10 45 0 58M48 19c10 13 10 45 0 58" fill="none" stroke="#e8fff7" stroke-width="4" stroke-linecap="round" opacity=".85"/>
  <path d="M23 23l11-5 8 7-13 7-6-9Zm44 2 9 8-8 9-8-8 7-9Zm-5 46 11-4 3 12-13 1-1-9Z" fill="#d7ea1f" opacity=".95"/>
  <path d="M19 63c5 8 12 14 21 17" fill="none" stroke="#c8102e" stroke-width="5" stroke-linecap="round"/>
</svg>
